<svg xmlns="http://www.w3.org/2000/svg" width="161.711" height="20.608" viewBox="0 0 161.711 20.608"><defs><style>.a{fill:#050505;}</style></defs><path class="a" d="M11.351-20.216a7.311,7.311,0,0,1,3.038.546A10.419,10.419,0,0,1,16.5-18.4q.56.42.854.1a2.952,2.952,0,0,0,.406-1.526h.644q-.056,1.1-.084,2.688t-.028,4.2h-.644a17.2,17.2,0,0,0-.364-2.3,6.1,6.1,0,0,0-.686-1.733,4.5,4.5,0,0,0-1.291-1.344,4.621,4.621,0,0,0-1.433-.826,4.832,4.832,0,0,0-1.641-.283,4.024,4.024,0,0,0-2.6.843,5.85,5.85,0,0,0-1.669,2.231,12.2,12.2,0,0,0-.885,3.086,21.952,21.952,0,0,0-.266,3.4A21.352,21.352,0,0,0,7.09-6.437a11.949,11.949,0,0,0,.9,3.072A5.82,5.82,0,0,0,9.685-1.156a4.1,4.1,0,0,0,2.607.832A4.687,4.687,0,0,0,13.9-.616a4.832,4.832,0,0,0,1.428-.806,4.221,4.221,0,0,0,1.683-2.212,16.573,16.573,0,0,0,.636-3.533H18.3q0,2.7.028,4.371T18.407,0h-.644a3.129,3.129,0,0,0-.378-1.512q-.266-.308-.882.084a14.653,14.653,0,0,1-2.2,1.274,7.035,7.035,0,0,1-2.982.546,11.431,11.431,0,0,1-5.368-1.2A8.577,8.577,0,0,1,2.377-4.284,10.985,10.985,0,0,1,1.1-9.744a11.054,11.054,0,0,1,1.316-5.488A9.458,9.458,0,0,1,6.04-18.9,10.521,10.521,0,0,1,11.351-20.216Zm19.914,0a11.429,11.429,0,0,1,5.367,1.2,8.6,8.6,0,0,1,3.579,3.458,10.966,10.966,0,0,1,1.274,5.474,11.126,11.126,0,0,1-1.305,5.488A9.353,9.353,0,0,1,36.553-.924,10.59,10.59,0,0,1,31.236.392a11.428,11.428,0,0,1-5.366-1.2,8.577,8.577,0,0,1-3.578-3.472,10.985,10.985,0,0,1-1.274-5.46,11.019,11.019,0,0,1,1.321-5.488A9.495,9.495,0,0,1,25.964-18.9,10.5,10.5,0,0,1,31.266-20.216Zm-.121.5a3.321,3.321,0,0,0-2.573,1.26,8.648,8.648,0,0,0-1.694,3.472,19.775,19.775,0,0,0-.6,5.124,17.657,17.657,0,0,0,.676,5.166A8.274,8.274,0,0,0,28.788-1.3a3.5,3.5,0,0,0,2.553,1.19,3.337,3.337,0,0,0,2.587-1.26,8.644,8.644,0,0,0,1.7-3.486,19.808,19.808,0,0,0,.6-5.11,17.5,17.5,0,0,0-.681-5.18,8.337,8.337,0,0,0-1.834-3.374A3.5,3.5,0,0,0,31.145-19.712Zm22.795-.5a7.311,7.311,0,0,1,3.038.546A10.419,10.419,0,0,1,59.091-18.4q.56.42.854.1a2.952,2.952,0,0,0,.406-1.526H61q-.056,1.1-.084,2.688t-.028,4.2h-.644a17.2,17.2,0,0,0-.364-2.3,6.1,6.1,0,0,0-.686-1.733A4.5,4.5,0,0,0,57.9-18.312a4.621,4.621,0,0,0-1.433-.826,4.832,4.832,0,0,0-1.641-.283,4.024,4.024,0,0,0-2.6.843,5.85,5.85,0,0,0-1.669,2.231,12.2,12.2,0,0,0-.885,3.086,21.952,21.952,0,0,0-.266,3.4,21.352,21.352,0,0,0,.274,3.419,11.949,11.949,0,0,0,.9,3.072,5.82,5.82,0,0,0,1.691,2.209,4.1,4.1,0,0,0,2.607.832,4.687,4.687,0,0,0,1.613-.291,4.832,4.832,0,0,0,1.428-.806A4.221,4.221,0,0,0,59.6-3.635a16.573,16.573,0,0,0,.636-3.533h.644q0,2.7.028,4.371T61,0h-.644a3.129,3.129,0,0,0-.378-1.512q-.266-.308-.882.084a14.653,14.653,0,0,1-2.2,1.274,7.035,7.035,0,0,1-2.982.546,11.431,11.431,0,0,1-5.368-1.2,8.577,8.577,0,0,1-3.578-3.472,10.985,10.985,0,0,1-1.274-5.46,11.054,11.054,0,0,1,1.316-5.488,9.458,9.458,0,0,1,3.62-3.668A10.521,10.521,0,0,1,53.939-20.216Zm28.56.392v.538a7.773,7.773,0,0,0-2.027.851,9.458,9.458,0,0,0-2.307,2.021l-5.2,6.065L74.9-13l6.653,10.73a5.5,5.5,0,0,0,.79,1,3.912,3.912,0,0,0,1.069.706V0q-1.075-.056-2.338-.07T78.708-.084q-.61,0-1.509.014T74.928,0V-.56q1.243-.056,1.462-.314t-.207-.946L72.117-8.54a5.111,5.111,0,0,0-.6-.865,1.678,1.678,0,0,0-.527-.406,1.971,1.971,0,0,0-.669-.145v-.583a4.247,4.247,0,0,0,2.254-.753,13.444,13.444,0,0,0,2.371-2.226l1.3-1.534a4.614,4.614,0,0,0,1.249-2.223,1.544,1.544,0,0,0-.476-1.459,2.586,2.586,0,0,0-1.685-.551v-.538q.734.028,1.394.042l1.386.028q.725.014,1.649.014.862,0,1.534-.028T82.5-19.824Zm-9.979,0v.56a3.961,3.961,0,0,0-1.307.21.988.988,0,0,0-.591.672,5.815,5.815,0,0,0-.146,1.526V-2.968a5.44,5.44,0,0,0,.157,1.512.984.984,0,0,0,.591.672,4.634,4.634,0,0,0,1.3.224V0q-.778-.056-1.991-.07T68.068-.084q-1.428,0-2.682.014T63.364,0V-.56a4.716,4.716,0,0,0,1.319-.224.953.953,0,0,0,.579-.672,5.847,5.847,0,0,0,.145-1.512V-16.856a5.823,5.823,0,0,0-.145-1.526.987.987,0,0,0-.591-.672,3.963,3.963,0,0,0-1.308-.21v-.56q.767.028,2.022.056t2.682.028q1.249,0,2.461-.028T72.52-19.824Zm29,0q-.112,1.534-.154,2.965t-.042,2.187q0,.6.028,1.148t.056.924h-.644a15,15,0,0,0-1.35-3.934,5.36,5.36,0,0,0-1.781-2.041,4.024,4.024,0,0,0-2.145-.6h-.325v16a4.7,4.7,0,0,0,.232,1.7,1.24,1.24,0,0,0,.893.733,8.379,8.379,0,0,0,1.927.185V0q-.93-.034-2.487-.059T92.484-.084q-1.641,0-3.094.025T87.041,0V-.56a8.376,8.376,0,0,0,1.926-.185,1.241,1.241,0,0,0,.893-.733,4.694,4.694,0,0,0,.233-1.7v-16h-.325a4.029,4.029,0,0,0-2.142.6,5.282,5.282,0,0,0-1.773,2.03A15.606,15.606,0,0,0,84.493-12.6h-.644a7.874,7.874,0,0,0,.07-.924q.014-.543.014-1.148,0-.756-.042-2.187t-.154-2.965q1.31.028,2.887.056t3.156.028H95.5q1.576,0,3.156-.028T101.517-19.824Zm9.682-.028,6.787,17.5a3.554,3.554,0,0,0,.862,1.369,1.551,1.551,0,0,0,.846.423V0q-.919-.056-2.156-.07t-2.52-.014q-1.361,0-2.559.014T110.538,0V-.56a2.675,2.675,0,0,0,1.809-.49q.381-.434-.179-1.862l-4.625-12.706.537-.857L104.014-5.9a12.711,12.711,0,0,0-.79,2.719,2.867,2.867,0,0,0,.131,1.6,1.5,1.5,0,0,0,.879.778,4.784,4.784,0,0,0,1.453.246V0q-.986-.056-1.817-.07T102.11-.084q-.566,0-1.145.014a9.414,9.414,0,0,0-1,.07V-.56a2.347,2.347,0,0,0,1.249-.793,7.564,7.564,0,0,0,1.255-2.315l6.289-16.184q.56.045,1.221.045T111.2-19.852Zm1.467,11.788v.56h-8.344l.28-.56Zm16.3-11.76v.56a3.959,3.959,0,0,0-1.308.21.988.988,0,0,0-.59.672,5.814,5.814,0,0,0-.146,1.526V-2.968a5.628,5.628,0,0,0,.151,1.512.967.967,0,0,0,.593.672,4.72,4.72,0,0,0,1.3.224V0q-.778-.056-1.991-.07T124.51-.084q-1.433,0-2.683.014T119.806,0V-.56a4.685,4.685,0,0,0,1.317-.224.96.96,0,0,0,.579-.672,5.756,5.756,0,0,0,.148-1.512V-16.856a5.629,5.629,0,0,0-.151-1.526,1,1,0,0,0-.591-.672,3.91,3.91,0,0,0-1.3-.21v-.56q.772.028,2.021.056t2.683.028q1.249,0,2.461-.028T128.962-19.824Zm11.1,0v.56a4.769,4.769,0,0,0-1.442.21,1.048,1.048,0,0,0-.658.672,5.076,5.076,0,0,0-.168,1.526V-2.52a4.429,4.429,0,0,0,.123,1.209.773.773,0,0,0,.468.535,2.952,2.952,0,0,0,1.005.132h1.148a3.236,3.236,0,0,0,1.683-.5A6.136,6.136,0,0,0,143.8-2.556a8.959,8.959,0,0,0,1.257-2.1,10.979,10.979,0,0,0,.75-2.565h.644q-.084.98-.084,2.52,0,.689.031,2T146.563,0q-1.428-.056-3.22-.07t-3.192-.014H138.3q-1.123,0-2.433.014l-2.649.028q-1.338.014-2.531.042V-.56a4.716,4.716,0,0,0,1.319-.224.953.953,0,0,0,.579-.672,5.847,5.847,0,0,0,.145-1.512V-16.856a5.824,5.824,0,0,0-.145-1.526.987.987,0,0,0-.591-.672,3.963,3.963,0,0,0-1.308-.21v-.56q.767.028,2.022.056t2.682.028q1.316,0,2.585-.028T140.067-19.824Zm15.271-.375a7.983,7.983,0,0,1,2.688.356,10.62,10.62,0,0,1,1.624.748q.336.2.546.294a.958.958,0,0,0,.406.1.425.425,0,0,0,.406-.308,4.028,4.028,0,0,0,.21-.924h.644q-.028.566-.07,1.325t-.056,2q-.014,1.246-.014,3.279h-.644a9.315,9.315,0,0,0-.689-2.912,6.245,6.245,0,0,0-1.616-2.33,3.648,3.648,0,0,0-2.512-.918,3.166,3.166,0,0,0-2.125.717,2.5,2.5,0,0,0-.843,2.016,3.149,3.149,0,0,0,.532,1.845,6.88,6.88,0,0,0,1.61,1.551q1.078.787,2.741,1.929a28.5,28.5,0,0,1,2.343,1.745,7.252,7.252,0,0,1,1.669,1.957,5.177,5.177,0,0,1,.624,2.621,4.694,4.694,0,0,1-1,3.08,5.987,5.987,0,0,1-2.66,1.82,10.569,10.569,0,0,1-3.618.6,10.09,10.09,0,0,1-2.9-.336,13.269,13.269,0,0,1-1.831-.7,2.024,2.024,0,0,0-.952-.392.425.425,0,0,0-.406.308,4.028,4.028,0,0,0-.21.924h-.644q.056-.7.07-1.632t.028-2.422q.014-1.49.014-3.786h.644a14.823,14.823,0,0,0,.63,3.562,6.08,6.08,0,0,0,1.6,2.674,4.013,4.013,0,0,0,2.87,1.016,4.378,4.378,0,0,0,1.773-.333,2.739,2.739,0,0,0,1.2-.991,2.83,2.83,0,0,0,.442-1.616,3.851,3.851,0,0,0-.535-2.047,6.632,6.632,0,0,0-1.459-1.641,21.817,21.817,0,0,0-2.15-1.548q-1.316-.879-2.464-1.764a7.46,7.46,0,0,1-1.834-2A4.99,4.99,0,0,1,148.73-15a4.529,4.529,0,0,1,.933-2.954,5.509,5.509,0,0,1,2.45-1.7A9.367,9.367,0,0,1,155.338-20.2Z" transform="translate(-1.103 20.216)"/></svg>